<svg width="633.1px" height="122px" xmlns="http://www.w3.org/2000/svg" viewBox="-66.54374999999999 14 633.0875 122" style="background: rgba(0, 0, 0, 0)" preserveAspectRatio="xMidYMid"><defs><linearGradient id="editing-gradient-gradient" x1="0" x2="1" y1="0.5" y2="0.5" gradientUnits="objectBoundingBox"><stop offset="0" stop-color="#ff00ff"></stop><stop offset="1" stop-color="#00ffff"></stop></linearGradient></defs><style>    text {
  font-size: 64px;
  font-family: Arial Black;
  dominant-baseline: central;
  text-anchor: middle;
}</style><g transform="matrix(1.4,0,0,2,-38.1,262.6)">    <path transform="matrix(1,0,0,1,0,-24.4)" fill="url(#editing-gradient-gradient)" d="M -2.6 -53.5 L -16.5 -53.5 L -8.4 -95.7 L 5.7 -95.7 L -2.6 -53.5 Z M 53.2 -52.2 L 53.2 -52.2 L 53.2 -52.2 Q 45.4 -52.2 45.4 -58.2 L 45.4 -58.2 L 45.4 -58.2 Q 45.4 -60.8 46.6 -65.9 L 46.6 -65.9 L 46.6 -65.9 Q 47.7 -71 48.1 -73.1 L 48.1 -73.1 L 48.1 -73.1 Q 49 -77.7 49 -79.2 L 49 -79.2 L 49 -79.2 Q 49 -82.5 46.5 -82.5 L 46.5 -82.5 L 46.5 -82.5 Q 44.9 -82.5 43.4 -80.3 L 43.4 -80.3 L 43.4 -80.3 Q 41.9 -78.1 41.2 -73.6 L 41.2 -73.6 L 37.2 -53.5 L 24.7 -52.2 L 28.2 -69.6 L 28.2 -69.6 Q 28.7 -72.5 29.2 -75.8 L 29.2 -75.8 L 29.2 -75.8 Q 29.8 -79 29.8 -79.5 L 29.8 -79.5 L 29.8 -79.5 Q 29.8 -82.5 27.6 -82.5 L 27.6 -82.5 L 27.6 -82.5 Q 26.1 -82.5 24.5 -80.3 L 24.5 -80.3 L 24.5 -80.3 Q 22.9 -78.1 22 -73.6 L 22 -73.6 L 18.1 -53.5 L 5.5 -52.2 L 12.2 -86.1 L 22.7 -87.4 L 21.6 -80.9 L 21.6 -80.9 Q 23.2 -84.4 26.3 -85.9 L 26.3 -85.9 L 26.3 -85.9 Q 29.4 -87.4 34.2 -87.4 L 34.2 -87.4 L 34.2 -87.4 Q 36.9 -87.4 38.7 -86.1 L 38.7 -86.1 L 38.7 -86.1 Q 40.5 -84.7 41.1 -82.5 L 41.1 -82.5 L 41.1 -82.5 Q 42.2 -84.8 45 -86.1 L 45 -86.1 L 45 -86.1 Q 47.7 -87.4 51.2 -87.4 L 51.2 -87.4 L 51.2 -87.4 Q 54.6 -87.4 56.3 -86.7 L 56.3 -86.7 L 56.3 -86.7 Q 58 -85.9 59 -84.7 L 59 -84.7 L 59 -84.7 Q 60.7 -82.5 60.7 -78.4 L 60.7 -78.4 L 60.7 -78.4 Q 60.7 -74.3 59 -66 L 59 -66 L 59 -66 Q 58.1 -61.9 58.1 -60.4 L 58.1 -60.4 L 58.1 -60.4 Q 58.1 -58.9 59 -58 L 59 -58 L 59 -58 Q 59.8 -57.1 61.1 -56.9 L 61.1 -56.9 L 61.1 -56.9 Q 60.5 -54.8 58.3 -53.5 L 58.3 -53.5 L 58.3 -53.5 Q 56.1 -52.2 53.2 -52.2 Z M 68.8 -55.4 L 68.8 -55.4 L 68.8 -55.4 Q 67.3 -57.1 66.7 -59.7 L 66.7 -59.7 L 66.7 -59.7 Q 66 -62.3 66 -66.6 L 66 -66.6 L 66 -66.6 Q 66 -70.9 67.5 -74.8 L 67.5 -74.8 L 67.5 -74.8 Q 68.9 -78.7 71.6 -81.5 L 71.6 -81.5 L 71.6 -81.5 Q 77.1 -87.4 86.2 -87.4 L 86.2 -87.4 L 86.2 -87.4 Q 89.5 -87.4 91.8 -86.3 L 91.8 -86.3 L 102.8 -87.4 L 98 -62.4 L 98 -62.4 Q 97.9 -61.7 97.9 -60.3 L 97.9 -60.3 L 97.9 -60.3 Q 97.9 -58.9 98.7 -58 L 98.7 -58 L 98.7 -58 Q 99.6 -57.1 100.9 -56.9 L 100.9 -56.9 L 100.9 -56.9 Q 100.2 -54.8 97.9 -53.5 L 97.9 -53.5 L 97.9 -53.5 Q 95.6 -52.2 92.9 -52.2 L 92.9 -52.2 L 92.9 -52.2 Q 90.3 -52.2 88.5 -53.2 L 88.5 -53.2 L 88.5 -53.2 Q 86.8 -54.2 86.3 -55.9 L 86.3 -55.9 L 86.3 -55.9 Q 85.2 -54.3 83.1 -53.2 L 83.1 -53.2 L 83.1 -53.2 Q 80.9 -52.2 78 -52.2 L 78 -52.2 L 78 -52.2 Q 75.1 -52.2 72.7 -53 L 72.7 -53 L 72.7 -53 Q 70.3 -53.7 68.8 -55.4 Z M 82.3 -81.4 L 82.3 -81.4 L 82.3 -81.4 Q 81.6 -80.2 81 -78.3 L 81 -78.3 L 81 -78.3 Q 80.3 -76.3 79.3 -71.1 L 79.3 -71.1 L 79.3 -71.1 Q 78.2 -65.9 78.2 -62.2 L 78.2 -62.2 L 78.2 -62.2 Q 78.2 -58.5 78.8 -57.4 L 78.8 -57.4 L 78.8 -57.4 Q 79.4 -56.3 80.4 -56.3 L 80.4 -56.3 L 80.4 -56.3 Q 82.4 -56.3 83.9 -58.3 L 83.9 -58.3 L 83.9 -58.3 Q 85.4 -60.2 86 -63.7 L 86 -63.7 L 89.4 -82.4 L 89.4 -82.4 Q 88.1 -83.6 86.5 -83.6 L 86.5 -83.6 L 86.5 -83.6 Q 84.9 -83.6 84 -83.1 L 84 -83.1 L 84 -83.1 Q 83.1 -82.5 82.3 -81.4 Z M 110.5 -80.2 L 110.5 -80.2 L 110.5 -80.2 Q 112.7 -83.3 116 -85.4 L 116 -85.4 L 116 -85.4 Q 119.3 -87.4 123.3 -87.4 L 123.3 -87.4 L 123.3 -87.4 Q 127.4 -87.4 129.3 -86.1 L 129.3 -86.1 L 141.8 -87.4 L 137.5 -62.8 L 137.5 -62.8 Q 135.2 -50.3 130.5 -45.4 L 130.5 -45.4 L 130.5 -45.4 Q 126 -40.7 117.1 -40.7 L 117.1 -40.7 L 117.1 -40.7 Q 110.4 -40.7 106.6 -42.8 L 106.6 -42.8 L 106.6 -42.8 Q 102.7 -44.9 102.7 -48.4 L 102.7 -48.4 L 102.7 -48.4 Q 102.7 -51.1 104.7 -52.6 L 104.7 -52.6 L 104.7 -52.6 Q 106.7 -54.1 109.8 -54.1 L 109.8 -54.1 L 109.8 -54.1 Q 112.4 -54.1 114.5 -52.8 L 114.5 -52.8 L 114.5 -52.8 Q 115.7 -52.2 116.3 -51.3 L 116.3 -51.3 L 116.3 -51.3 Q 114.8 -50 114.8 -47.9 L 114.8 -47.9 L 114.8 -47.9 Q 114.8 -45.2 117.4 -45.2 L 117.4 -45.2 L 117.4 -45.2 Q 121.7 -45.2 124.1 -55.3 L 124.1 -55.3 L 124.1 -55.3 Q 124.8 -58 125.4 -60.8 L 125.4 -60.8 L 125.4 -60.8 Q 122.5 -57.3 116 -57.3 L 116 -57.3 L 116 -57.3 Q 111.4 -57.3 108.8 -59.4 L 108.8 -59.4 L 108.8 -59.4 Q 106.2 -61.6 106.2 -66.7 L 106.2 -66.7 L 106.2 -66.7 Q 106.2 -69.9 107.3 -73.5 L 107.3 -73.5 L 107.3 -73.5 Q 108.4 -77.2 110.5 -80.2 Z M 118.8 -66.5 L 118.8 -66.5 L 118.8 -66.5 Q 118.8 -62.2 121.1 -62.2 L 121.1 -62.2 L 121.1 -62.2 Q 122.6 -62.2 124.1 -63.9 L 124.1 -63.9 L 124.1 -63.9 Q 125.2 -65.2 125.7 -67.2 L 125.7 -67.2 L 129 -83.6 L 129 -83.6 Q 128.6 -83.7 128.3 -83.8 L 128.3 -83.8 L 128.3 -83.8 Q 127.7 -84.1 126.8 -84.1 L 126.8 -84.1 L 126.8 -84.1 Q 122.9 -84.1 120.6 -77.7 L 120.6 -77.7 L 120.6 -77.7 Q 118.8 -72.7 118.8 -66.5 Z M 170.2 -64.3 L 170.2 -64.3 L 170.2 -64.3 Q 171.8 -63.2 171.8 -60.8 L 171.8 -60.8 L 171.8 -60.8 Q 171.8 -58.4 170.6 -56.9 L 170.6 -56.9 L 170.6 -56.9 Q 169.4 -55.3 167.4 -54.3 L 167.4 -54.3 L 167.4 -54.3 Q 163.3 -52.2 158.9 -52.2 L 158.9 -52.2 L 158.9 -52.2 Q 154.5 -52.2 151.9 -53.2 L 151.9 -53.2 L 151.9 -53.2 Q 149.3 -54.1 147.6 -55.9 L 147.6 -55.9 L 147.6 -55.9 Q 144.2 -59.3 144.2 -65.5 L 144.2 -65.5 L 144.2 -65.5 Q 144.2 -75.2 149.4 -81.1 L 149.4 -81.1 L 149.4 -81.1 Q 155.1 -87.4 164.9 -87.4 L 164.9 -87.4 L 164.9 -87.4 Q 170.9 -87.4 174 -84.8 L 174 -84.8 L 174 -84.8 Q 176.2 -82.9 176.2 -79.8 L 176.2 -79.8 L 176.2 -79.8 Q 176.2 -68.5 156.7 -68.5 L 156.7 -68.5 L 156.7 -68.5 Q 156.5 -66.9 156.5 -65.5 L 156.5 -65.5 L 156.5 -65.5 Q 156.5 -62.5 157.8 -61.4 L 157.8 -61.4 L 157.8 -61.4 Q 159.1 -60.3 161.5 -60.3 L 161.5 -60.3 L 161.5 -60.3 Q 164 -60.3 166.6 -61.4 L 166.6 -61.4 L 166.6 -61.4 Q 169.2 -62.5 170.2 -64.3 Z M 157.2 -71.3 L 157.2 -71.3 L 157.2 -71.3 Q 161.7 -71.3 164.4 -74.1 L 164.4 -74.1 L 164.4 -74.1 Q 167 -76.8 167 -81.1 L 167 -81.1 L 167 -81.1 Q 167 -82.5 166.4 -83.3 L 166.4 -83.3 L 166.4 -83.3 Q 165.9 -84.1 164.8 -84.1 L 164.8 -84.1 L 164.8 -84.1 Q 163.7 -84.1 162.8 -83.7 L 162.8 -83.7 L 162.8 -83.7 Q 161.9 -83.3 160.9 -81.9 L 160.9 -81.9 L 160.9 -81.9 Q 158.5 -78.7 157.2 -71.3 Z M 197.5 -75.9 L 197.5 -75.9 L 197.5 -75.9 Q 198.4 -78.3 198.4 -80.4 L 198.4 -80.4 L 198.4 -80.4 Q 198.4 -84.1 195.3 -84.1 L 195.3 -84.1 L 195.3 -84.1 Q 193.7 -84.1 192.4 -82.7 L 192.4 -82.7 L 192.4 -82.7 Q 191.1 -81.3 191.1 -79.5 L 191.1 -79.5 L 191.1 -79.5 Q 191.1 -78.2 192.1 -77.2 L 192.1 -77.2 L 192.1 -77.2 Q 193.6 -75.8 197.4 -73.5 L 197.4 -73.5 L 197.4 -73.5 Q 201.2 -71.1 202.6 -69.3 L 202.6 -69.3 L 202.6 -69.3 Q 204 -67.4 204 -64.8 L 204 -64.8 L 204 -64.8 Q 204 -62.2 202.8 -59.8 L 202.8 -59.8 L 202.8 -59.8 Q 201.5 -57.5 199.3 -55.8 L 199.3 -55.8 L 199.3 -55.8 Q 194.5 -52.2 186.8 -52.2 L 186.8 -52.2 L 186.8 -52.2 Q 182.7 -52.2 179.5 -54.4 L 179.5 -54.4 L 179.5 -54.4 Q 176.3 -56.5 176.3 -59 L 176.3 -59 L 176.3 -59 Q 176.3 -61.5 178.1 -63 L 178.1 -63 L 178.1 -63 Q 179.9 -64.4 182.6 -64.4 L 182.6 -64.4 L 182.6 -64.4 Q 185.3 -64.4 186.9 -63.4 L 186.9 -63.4 L 186.9 -63.4 Q 186.1 -61.3 186.1 -59.9 L 186.1 -59.9 L 186.1 -59.9 Q 186.1 -55.7 189.7 -55.7 L 189.7 -55.7 L 189.7 -55.7 Q 191.2 -55.7 192.3 -56.6 L 192.3 -56.6 L 192.3 -56.6 Q 193.3 -57.6 193.3 -59.2 L 193.3 -59.2 L 193.3 -59.2 Q 193.3 -62.5 187.8 -66 L 187.8 -66 L 187.8 -66 Q 183.3 -68.9 182.3 -70.1 L 182.3 -70.1 L 182.3 -70.1 Q 180.5 -72.1 180.5 -74.7 L 180.5 -74.7 L 180.5 -74.7 Q 180.5 -77.2 181.8 -79.7 L 181.8 -79.7 L 181.8 -79.7 Q 183 -82.1 185.2 -83.8 L 185.2 -83.8 L 185.2 -83.8 Q 189.9 -87.4 198 -87.4 L 198 -87.4 L 198 -87.4 Q 202.2 -87.4 204.6 -85.7 L 204.6 -85.7 L 204.6 -85.7 Q 207.1 -84.1 207.1 -81.3 L 207.1 -81.3 L 207.1 -81.3 Q 207.1 -78.4 205.4 -76.8 L 205.4 -76.8 L 205.4 -76.8 Q 203.7 -75.2 200.6 -75.2 L 200.6 -75.2 L 200.6 -75.2 Q 198.5 -75.2 197.5 -75.9 Z M 227.2 -80.2 L 227.2 -80.2 L 227.2 -80.2 Q 229.4 -83.3 232.7 -85.4 L 232.7 -85.4 L 232.7 -85.4 Q 236 -87.4 240 -87.4 L 240 -87.4 L 240 -87.4 Q 244 -87.4 246 -86.1 L 246 -86.1 L 258.5 -87.4 L 254.1 -62.8 L 254.1 -62.8 Q 251.9 -50.3 247.2 -45.4 L 247.2 -45.4 L 247.2 -45.4 Q 242.6 -40.7 233.8 -40.7 L 233.8 -40.7 L 233.8 -40.7 Q 227.1 -40.7 223.2 -42.8 L 223.2 -42.8 L 223.2 -42.8 Q 219.4 -44.9 219.4 -48.4 L 219.4 -48.4 L 219.4 -48.4 Q 219.4 -51.1 221.4 -52.6 L 221.4 -52.6 L 221.4 -52.6 Q 223.4 -54.1 226.4 -54.1 L 226.4 -54.1 L 226.4 -54.1 Q 229.1 -54.1 231.2 -52.8 L 231.2 -52.8 L 231.2 -52.8 Q 232.4 -52.2 233 -51.3 L 233 -51.3 L 233 -51.3 Q 231.5 -50 231.5 -47.9 L 231.5 -47.9 L 231.5 -47.9 Q 231.5 -45.2 234 -45.2 L 234 -45.2 L 234 -45.2 Q 238.3 -45.2 240.8 -55.3 L 240.8 -55.3 L 240.8 -55.3 Q 241.5 -58 242 -60.8 L 242 -60.8 L 242 -60.8 Q 239.2 -57.3 232.6 -57.3 L 232.6 -57.3 L 232.6 -57.3 Q 228.1 -57.3 225.5 -59.4 L 225.5 -59.4 L 225.5 -59.4 Q 222.8 -61.6 222.8 -66.7 L 222.8 -66.7 L 222.8 -66.7 Q 222.8 -69.9 223.9 -73.5 L 223.9 -73.5 L 223.9 -73.5 Q 225 -77.2 227.2 -80.2 Z M 235.5 -66.5 L 235.5 -66.5 L 235.5 -66.5 Q 235.5 -62.2 237.8 -62.2 L 237.8 -62.2 L 237.8 -62.2 Q 239.3 -62.2 240.8 -63.9 L 240.8 -63.9 L 240.8 -63.9 Q 241.9 -65.2 242.4 -67.2 L 242.4 -67.2 L 245.6 -83.6 L 245.6 -83.6 Q 245.3 -83.7 245 -83.8 L 245 -83.8 L 245 -83.8 Q 244.4 -84.1 243.5 -84.1 L 243.5 -84.1 L 243.5 -84.1 Q 239.6 -84.1 237.3 -77.7 L 237.3 -77.7 L 237.3 -77.7 Q 235.5 -72.7 235.5 -66.5 Z M 263.8 -55.4 L 263.8 -55.4 L 263.8 -55.4 Q 262.3 -57.1 261.6 -59.7 L 261.6 -59.7 L 261.6 -59.7 Q 260.9 -62.3 260.9 -66.6 L 260.9 -66.6 L 260.9 -66.6 Q 260.9 -70.9 262.4 -74.8 L 262.4 -74.8 L 262.4 -74.8 Q 263.9 -78.7 266.6 -81.5 L 266.6 -81.5 L 266.6 -81.5 Q 272.1 -87.4 281.2 -87.4 L 281.2 -87.4 L 281.2 -87.4 Q 284.4 -87.4 286.8 -86.3 L 286.8 -86.3 L 297.7 -87.4 L 293 -62.4 L 293 -62.4 Q 292.8 -61.7 292.8 -60.3 L 292.8 -60.3 L 292.8 -60.3 Q 292.8 -58.9 293.7 -58 L 293.7 -58 L 293.7 -58 Q 294.5 -57.1 295.8 -56.9 L 295.8 -56.9 L 295.8 -56.9 Q 295.2 -54.8 292.8 -53.5 L 292.8 -53.5 L 292.8 -53.5 Q 290.5 -52.2 287.9 -52.2 L 287.9 -52.2 L 287.9 -52.2 Q 285.2 -52.2 283.5 -53.2 L 283.5 -53.2 L 283.5 -53.2 Q 281.7 -54.2 281.2 -55.9 L 281.2 -55.9 L 281.2 -55.9 Q 280.2 -54.3 278 -53.2 L 278 -53.2 L 278 -53.2 Q 275.8 -52.2 272.9 -52.2 L 272.9 -52.2 L 272.9 -52.2 Q 270 -52.2 267.6 -53 L 267.6 -53 L 267.6 -53 Q 265.3 -53.7 263.8 -55.4 Z M 277.3 -81.4 L 277.3 -81.4 L 277.3 -81.4 Q 276.5 -80.2 275.9 -78.3 L 275.9 -78.3 L 275.9 -78.3 Q 275.3 -76.3 274.2 -71.1 L 274.2 -71.1 L 274.2 -71.1 Q 273.2 -65.9 273.2 -62.2 L 273.2 -62.2 L 273.2 -62.2 Q 273.2 -58.5 273.7 -57.4 L 273.7 -57.4 L 273.7 -57.4 Q 274.3 -56.3 275.3 -56.3 L 275.3 -56.3 L 275.3 -56.3 Q 277.4 -56.3 278.9 -58.3 L 278.9 -58.3 L 278.9 -58.3 Q 280.4 -60.2 281 -63.7 L 281 -63.7 L 284.4 -82.4 L 284.4 -82.4 Q 283 -83.6 281.4 -83.6 L 281.4 -83.6 L 281.4 -83.6 Q 279.9 -83.6 278.9 -83.1 L 278.9 -83.1 L 278.9 -83.1 Q 278 -82.5 277.3 -81.4 Z M 316.5 -57 L 316.5 -57 L 316.5 -57 Q 314.5 -52.2 308.2 -52.2 L 308.2 -52.2 L 308.2 -52.2 Q 305 -52.2 302.9 -54.4 L 302.9 -54.4 L 302.9 -54.4 Q 301.2 -56.3 301.2 -58.4 L 301.2 -58.4 L 301.2 -58.4 Q 301.2 -63.2 303.5 -73.7 L 303.5 -73.7 L 308.2 -98.3 L 321.2 -99.6 L 314.9 -67.2 L 314.9 -67.2 Q 313.9 -62.4 313.9 -60.8 L 313.9 -60.8 L 313.9 -60.8 Q 313.9 -57.1 316.5 -57 Z M 324.7 -55.4 L 324.7 -55.4 L 324.7 -55.4 Q 323.2 -57.1 322.5 -59.7 L 322.5 -59.7 L 322.5 -59.7 Q 321.9 -62.3 321.9 -66.6 L 321.9 -66.6 L 321.9 -66.6 Q 321.9 -70.9 323.3 -74.8 L 323.3 -74.8 L 323.3 -74.8 Q 324.8 -78.7 327.5 -81.5 L 327.5 -81.5 L 327.5 -81.5 Q 333 -87.4 342.1 -87.4 L 342.1 -87.4 L 342.1 -87.4 Q 345.3 -87.4 347.7 -86.3 L 347.7 -86.3 L 358.7 -87.4 L 353.9 -62.4 L 353.9 -62.4 Q 353.7 -61.7 353.7 -60.3 L 353.7 -60.3 L 353.7 -60.3 Q 353.7 -58.9 354.6 -58 L 354.6 -58 L 354.6 -58 Q 355.5 -57.1 356.7 -56.9 L 356.7 -56.9 L 356.7 -56.9 Q 356.1 -54.8 353.8 -53.5 L 353.8 -53.5 L 353.8 -53.5 Q 351.4 -52.2 348.8 -52.2 L 348.8 -52.2 L 348.8 -52.2 Q 346.2 -52.2 344.4 -53.2 L 344.4 -53.2 L 344.4 -53.2 Q 342.7 -54.2 342.1 -55.9 L 342.1 -55.9 L 342.1 -55.9 Q 341.1 -54.3 338.9 -53.2 L 338.9 -53.2 L 338.9 -53.2 Q 336.8 -52.2 333.9 -52.2 L 333.9 -52.2 L 333.9 -52.2 Q 330.9 -52.2 328.6 -53 L 328.6 -53 L 328.6 -53 Q 326.2 -53.7 324.7 -55.4 Z M 338.2 -81.4 L 338.2 -81.4 L 338.2 -81.4 Q 337.5 -80.2 336.8 -78.3 L 336.8 -78.3 L 336.8 -78.3 Q 336.2 -76.3 335.1 -71.1 L 335.1 -71.1 L 335.1 -71.1 Q 334.1 -65.9 334.1 -62.2 L 334.1 -62.2 L 334.1 -62.2 Q 334.1 -58.5 334.7 -57.4 L 334.7 -57.4 L 334.7 -57.4 Q 335.2 -56.3 336.3 -56.3 L 336.3 -56.3 L 336.3 -56.3 Q 338.3 -56.3 339.8 -58.3 L 339.8 -58.3 L 339.8 -58.3 Q 341.3 -60.2 341.9 -63.7 L 341.9 -63.7 L 345.3 -82.4 L 345.3 -82.4 Q 343.9 -83.6 342.4 -83.6 L 342.4 -83.6 L 342.4 -83.6 Q 340.8 -83.6 339.9 -83.1 L 339.9 -83.1 L 339.9 -83.1 Q 338.9 -82.5 338.2 -81.4 Z M 382.1 -71.5 L 382.1 -71.5 L 382.1 -71.5 Q 384.4 -75.6 384.4 -79.7 L 384.4 -79.7 L 384.4 -79.7 Q 384.4 -82.5 382.5 -82.5 L 382.5 -82.5 L 382.5 -82.5 Q 380.9 -82.5 379.3 -79.9 L 379.3 -79.9 L 379.3 -79.9 Q 377.7 -77.2 377.2 -73.8 L 377.2 -73.8 L 373.8 -53.5 L 360.6 -52.2 L 367.1 -86.1 L 377.7 -87.4 L 376.5 -80.9 L 376.5 -80.9 Q 379.6 -87.4 386.7 -87.4 L 386.7 -87.4 L 386.7 -87.4 Q 390.4 -87.4 392.4 -85.5 L 392.4 -85.5 L 392.4 -85.5 Q 394.4 -83.6 394.4 -79.6 L 394.4 -79.6 L 394.4 -79.6 Q 394.4 -75.7 391.8 -73.2 L 391.8 -73.2 L 391.8 -73.2 Q 389.2 -70.7 384.8 -70.7 L 384.8 -70.7 L 384.8 -70.7 Q 382.9 -70.7 382.1 -71.5 Z M 415.8 -60.7 L 415.8 -60.7 L 415.8 -60.7 Q 412.5 -57.3 406.4 -57.3 L 406.4 -57.3 L 406.4 -57.3 Q 398.8 -57.3 397.2 -62.8 L 397.2 -62.8 L 397.2 -62.8 Q 396.7 -64.5 396.7 -66.3 L 396.7 -66.3 L 396.7 -66.3 Q 396.7 -68.2 397.1 -70.1 L 397.1 -70.1 L 400.1 -86.1 L 413.1 -87.4 L 409.5 -68.8 L 409.5 -68.8 Q 409.4 -67.9 409.2 -67.1 L 409.2 -67.1 L 409.2 -67.1 Q 409 -66.2 409 -65.2 L 409 -65.2 L 409 -65.2 Q 409 -64.3 409.3 -63.7 L 409.3 -63.7 L 409.3 -63.7 Q 409.7 -63.1 410.1 -62.7 L 410.1 -62.7 L 410.1 -62.7 Q 410.9 -62.2 412.3 -62.2 L 412.3 -62.2 L 412.3 -62.2 Q 413.6 -62.2 414.8 -63.9 L 414.8 -63.9 L 414.8 -63.9 Q 416 -65.5 416.6 -68.4 L 416.6 -68.4 L 420.1 -86.1 L 432.7 -87.4 L 427.9 -62.3 L 427.9 -62.3 Q 425.5 -50 420.7 -45.1 L 420.7 -45.1 L 420.7 -45.1 Q 418.2 -42.6 414.9 -41.6 L 414.9 -41.6 L 414.9 -41.6 Q 411.7 -40.6 407.6 -40.6 L 407.6 -40.6 L 407.6 -40.6 Q 400.8 -40.6 397 -42.7 L 397 -42.7 L 397 -42.7 Q 393.2 -44.8 393.2 -48.4 L 393.2 -48.4 L 393.2 -48.4 Q 393.2 -51 395.1 -52.5 L 395.1 -52.5 L 395.1 -52.5 Q 397.1 -54 400.2 -54 L 400.2 -54 L 400.2 -54 Q 402.9 -54 404.9 -52.8 L 404.9 -52.8 L 404.9 -52.8 Q 406.1 -52.1 406.7 -51.2 L 406.7 -51.2 L 406.7 -51.2 Q 405.2 -50 405.2 -47.9 L 405.2 -47.9 L 405.2 -47.9 Q 405.2 -45 407.8 -45 L 407.8 -45 L 407.8 -45 Q 412 -45 414.5 -54.8 L 414.5 -54.8 L 414.5 -54.8 Q 415.2 -57.6 415.8 -60.7 Z"/></g></svg>